<svg width="677" height="644" viewBox="0 0 677 644" fill="none" xmlns="http://www.w3.org/2000/svg">
<g clip-path="url(#clip0_6_26)">
<path d="M338.5 0L631.65 161V483L338.5 644L45.3504 483V161L338.5 0Z" fill="black"/>
<path d="M50.3504 163.958L338.5 5.70444L626.65 163.958V480.042L338.5 638.296L50.3504 480.042V163.958Z" stroke="white" stroke-opacity="0.5" stroke-width="10"/>
<path d="M371.053 153.308C362.039 151.469 352.607 150.549 343.092 150.298V135.084C408.28 136.923 465.038 171.866 497.173 224.195L483.985 231.802C478.894 223.694 473.385 216.087 467.125 209.148L452.1 222.105C430.399 197.362 400.851 179.723 367.047 173.287L371.053 153.308ZM175.572 377.506L194.769 371.07C189.427 355.772 186.423 339.137 186.423 322C186.423 304.863 189.177 288.228 194.519 272.93L175.572 266.494C178.577 257.466 182.5 248.688 186.923 240.58L173.735 232.973C159.379 259.305 151.116 289.816 151.116 322C151.116 354.184 159.462 384.695 173.735 411.111L186.923 403.504C182.5 395.145 178.827 386.534 175.572 377.506ZM308.87 470.797C275.149 464.109 245.601 446.471 223.816 421.727L208.792 434.935C202.532 427.746 196.773 420.139 191.931 412.03L178.577 419.888C210.712 471.967 267.72 507.077 332.908 508.999V493.702C323.477 493.451 313.961 492.28 304.947 490.692L308.87 470.797ZM208.875 209.065L223.9 222.022C245.601 197.278 275.149 179.64 308.953 173.203L305.03 153.308C314.045 151.469 323.477 150.549 332.992 150.298V135.084C267.804 136.923 211.046 171.866 178.91 224.195L192.098 231.802C197.106 223.694 202.615 216.003 208.875 209.065ZM467.125 434.935L452.1 421.727C430.399 446.471 400.851 464.109 367.047 470.797L370.97 490.692C361.955 492.28 352.523 493.451 343.008 493.702V508.999C408.196 507.16 465.205 471.967 497.34 419.888L483.902 412.03C479.144 420.139 473.385 427.746 467.125 434.935ZM545 322C545 436.523 452.351 529.312 338 529.312C223.649 529.312 131 436.523 131 322C131 207.477 223.649 114.688 338 114.688C452.351 114.688 545 207.477 545 322ZM534.817 322C534.817 213.245 446.592 124.886 338 124.886C229.408 124.886 141.183 213.245 141.183 322C141.183 430.755 229.408 519.114 338 519.114C446.592 519.114 534.817 430.755 534.817 322ZM502.264 232.889L489.077 240.496C493.5 248.605 497.423 257.382 500.428 266.41L481.481 272.847C486.823 288.145 489.577 304.78 489.577 321.916C489.577 339.053 486.573 355.688 481.231 370.986L500.428 377.423C497.173 386.451 493.5 394.977 489.077 403.337L502.264 410.944C516.621 384.695 524.884 354.184 524.884 322C524.884 289.816 516.621 259.305 502.264 232.889ZM349.519 381.435C363.124 378.677 374.893 371.738 383.49 361.791L426.225 399.241C436.158 387.872 444.004 374.748 448.845 360.119L395.259 341.645C397.346 335.375 398.514 328.938 398.514 322C398.514 315.062 397.346 308.541 395.259 302.355L449.096 283.881C444.004 269.336 436.158 256.128 426.225 244.759L383.49 282.209C374.976 272.262 363.124 265.073 349.519 262.314L360.62 206.808C353.442 205.22 345.846 204.467 338 204.467C330.154 204.467 322.558 205.136 315.38 206.808L326.481 262.314C312.876 265.073 301.107 272.262 292.51 282.209L249.775 244.759C239.842 256.128 231.996 269.252 226.904 283.881L280.741 302.355C278.654 308.625 277.486 315.062 277.486 322C277.486 328.938 278.654 335.459 280.741 341.645L227.155 360.119C231.996 374.664 239.842 387.872 249.775 399.241L292.51 361.791C301.024 371.738 312.876 378.677 326.481 381.435L315.38 437.192C322.558 438.613 330.154 439.533 338 439.533C345.846 439.533 353.442 438.613 360.62 437.192L349.519 381.435Z" fill="white"/>
</g>
<defs>
<clipPath id="clip0_6_26">
<rect width="677" height="644" fill="white"/>
</clipPath>
</defs>
</svg>
