<svg width="587" height="644" viewBox="0 0 587 644" fill="none" xmlns="http://www.w3.org/2000/svg">
<path fill-rule="evenodd" clip-rule="evenodd" d="M586.65 161L293.5 0L0.350342 161V483L293.5 644L586.65 483V161ZM50.1999 315.9C45.9999 453.8 154.2 570 293.5 570C436 570 537.9 466.2 535.9 320.6C534.3 200.2 469.8 152.3 419.7 115.8C419.7 115.8 412.8 113.1 418.9 118.6C418.9 118.6 532.1 251.7 429.4 343.6C429.4 343.6 374.1 391 341.7 346.4C314 308.5 325.3 247.6 341.1 219.1C341.1 219.1 359.1 188.1 386.5 179.2L358 147.4C358 147.4 328.3 163.7 314.5 186.7C314.5 186.7 315.9 152.9 336.4 124.1L292.1 74L247.5 124.7C247.5 124.7 270.2 156.5 269.4 186.1C269.4 186.1 250.6 157.9 226.2 147.4L197.4 179.2C197.4 179.2 233.1 194.4 243.1 219.3C243.1 219.3 282.2 295.1 243.7 345.2C243.7 345.2 203.5 392.2 153.7 342.7C56.4999 246.1 162 121.8 167.8 116.3C168.455 115.154 167.502 115.348 166.97 115.456C166.852 115.48 166.754 115.5 166.7 115.5C93.3999 163.7 52.9999 236.7 50.1999 315.9Z" fill="black"/>
</svg>
