<svg width="677" height="644" viewBox="0 0 677 644" fill="none" xmlns="http://www.w3.org/2000/svg">
<g clip-path="url(#clip0_8_174)">
<path d="M338.5 0L631.65 161V483L338.5 644L45.3504 483V161L338.5 0Z" fill="black"/>
<path d="M50.3504 163.958L338.5 5.70444L626.65 163.958V480.042L338.5 638.296L50.3504 480.042V163.958Z" stroke="white" stroke-opacity="0.5" stroke-width="10"/>
<path d="M338.406 523.5C225.225 523.5 137.312 429.087 140.725 317.044C143 252.694 175.825 193.381 235.381 154.219C235.625 154.219 236.925 153.731 236.275 154.869C231.562 159.337 145.844 260.331 224.819 338.819C265.281 379.038 297.944 340.85 297.944 340.85C329.225 300.144 297.456 238.556 297.456 238.556C289.331 218.325 260.325 205.975 260.325 205.975L283.725 180.138C303.55 188.669 318.825 211.581 318.825 211.581C319.475 187.531 301.031 161.694 301.031 161.694L337.269 120.5L373.262 161.206C356.606 184.606 355.469 212.069 355.469 212.069C366.681 193.381 390.812 180.138 390.812 180.138L413.969 205.975C391.706 213.206 377.081 238.394 377.081 238.394C364.244 261.55 355.062 311.031 377.569 341.825C403.894 378.062 448.825 339.55 448.825 339.55C532.269 264.881 440.294 156.737 440.294 156.737C435.337 152.269 440.944 154.462 440.944 154.462C481.65 184.119 534.056 223.038 535.356 320.863C536.981 439.163 454.187 523.5 338.406 523.5Z" fill="white"/>
</g>
<defs>
<clipPath id="clip0_8_174">
<rect width="677" height="644" fill="white"/>
</clipPath>
</defs>
</svg>
