<svg width="677" height="644" viewBox="0 0 677 644" fill="none" xmlns="http://www.w3.org/2000/svg">
<g clip-path="url(#clip0_8_92)">
<path d="M338.5 0L631.65 161V483L338.5 644L45.3504 483V161L338.5 0Z" fill="black"/>
<path d="M50.3504 163.958L338.5 5.70444L626.65 163.958V480.042L338.5 638.296L50.3504 480.042V163.958Z" stroke="white" stroke-opacity="0.5" stroke-width="10"/>
<path fill-rule="evenodd" clip-rule="evenodd" d="M152.762 387.325C152.762 412.507 170.062 433.401 192.737 437.353V478.488C192.737 478.488 210.287 517 279.025 517C332.65 491.163 342.887 491.163 391.637 517C454.525 516.513 482.312 475.563 482.312 475.563L484.365 437.335C506.99 433.338 524.238 412.469 524.238 387.325C524.238 366.344 512.229 348.34 495.108 340.631C500.287 334.614 503.763 323.501 503.763 310.788C503.763 291.672 495.905 276.175 486.213 276.175L486.158 276.175C484.711 193.226 453.999 127 337.038 127C229.11 127 189.81 193.226 187.934 276.175L187.862 276.175C178.17 276.175 170.312 291.672 170.312 310.788C170.312 324.222 174.193 335.868 179.864 341.605C163.83 349.784 152.762 367.183 152.762 387.325ZM474.584 218.65H467.759L464.715 243.757C446.937 239.064 410.856 233.763 338.571 233.763C265.253 233.763 229.181 239.217 211.676 243.958L208.608 218.65H201.783L199.066 248.54C196.427 249.926 195.734 250.825 195.734 250.825V267.4C195.734 267.4 212.796 250.825 338.571 250.825C464.346 250.825 481.409 267.4 481.409 267.4V250.825C481.409 250.825 480.576 249.745 477.264 248.129L474.584 218.65ZM312.175 258.138C260.012 257.163 230.762 263.5 230.762 263.5C230.275 301.525 247.825 306.4 247.825 306.4C280 302.5 312.175 273.738 312.175 258.138ZM444.775 263.5C444.775 263.5 415.525 257.163 363.363 258.138C363.363 273.738 395.538 302.5 427.713 306.4C427.713 306.4 445.263 301.525 444.775 263.5ZM349.225 430.225H321.437L315.587 459.963L301.45 469.713L315.587 493.6H359.462L371.162 469.713L356.05 459.963L349.225 430.225ZM305.974 350.143C299.726 354.387 293.408 359.249 287.433 364.166V375.734C293.43 372.625 299.755 369.538 305.974 366.823V350.143ZM315.012 363.132V344.442C323.363 339.623 331.201 336.486 337.454 336.486C344.014 336.486 352.319 339.939 361.131 345.164V363.604C352.112 360.121 343.739 357.796 337.454 357.796C331.457 357.796 323.558 359.912 315.012 363.132ZM370.169 367.366C376.417 370.137 382.744 373.258 388.709 376.377V365.188C382.765 360.249 376.445 355.327 370.169 350.99V367.366ZM397.748 372.939V381.236C411.028 388.567 420.816 394.777 420.816 394.777C420.816 394.777 411.072 384.707 397.748 372.939ZM278.395 380.557V371.852C264.442 384.081 254.091 394.777 254.091 394.777C254.091 394.777 264.491 388.179 278.395 380.557ZM270.25 490.675C278.058 490.675 284.387 484.346 284.387 476.538C284.387 468.73 278.058 462.4 270.25 462.4C262.442 462.4 256.112 468.73 256.112 476.538C256.112 484.346 262.442 490.675 270.25 490.675ZM415.038 476.538C415.038 484.346 408.708 490.675 400.9 490.675C393.092 490.675 386.762 484.346 386.762 476.538C386.762 468.73 393.092 462.4 400.9 462.4C408.708 462.4 415.038 468.73 415.038 476.538ZM223.143 395.529L203.778 382.239H195.259L214.432 402.154L223.143 395.529ZM479.431 382.239L460.065 395.529L468.776 402.154L487.95 382.239H479.431Z" fill="white"/>
</g>
<defs>
<clipPath id="clip0_8_92">
<rect width="677" height="644" fill="white"/>
</clipPath>
</defs>
</svg>
