<svg width="587" height="644" viewBox="0 0 587 644" fill="none" xmlns="http://www.w3.org/2000/svg">
<path fill-rule="evenodd" clip-rule="evenodd" d="M586.65 161L293.5 0L0.350342 161V483L293.5 644L586.65 483V161ZM132.228 449.626C107.141 445.254 88 422.137 88 394.276C88 371.99 100.245 352.741 117.985 343.691C111.711 337.344 107.417 324.458 107.417 309.594C107.417 288.445 116.111 271.299 126.835 271.299C126.861 271.299 126.887 271.299 126.913 271.299C128.99 179.525 172.471 106.252 291.882 106.252C421.288 106.252 455.268 179.525 456.869 271.299L456.929 271.299C467.653 271.299 476.346 288.445 476.346 309.594C476.346 323.661 472.501 335.956 466.771 342.614C485.713 351.143 499 371.063 499 394.276C499 422.095 479.917 445.184 454.885 449.606L452.614 491.902C452.614 491.902 421.87 537.209 352.291 537.748C298.354 509.161 287.028 509.161 227.697 537.748C151.646 537.748 132.228 495.138 132.228 495.138V449.626ZM436.512 207.654H444.063L447.028 240.269C450.692 242.057 451.614 243.252 451.614 243.252V261.591C451.614 261.591 432.736 243.252 293.579 243.252C154.421 243.252 135.543 261.591 135.543 261.591V243.252C135.543 243.252 136.311 242.257 139.23 240.724L142.236 207.654H149.787L153.181 235.654C172.55 230.409 212.459 224.374 293.579 224.374C373.555 224.374 413.475 230.24 433.145 235.432L436.512 207.654ZM174.299 257.276C174.299 257.276 206.661 250.264 264.374 251.343C264.374 268.602 228.776 300.425 193.177 304.74C193.177 304.74 173.76 299.346 174.299 257.276ZM321.008 251.343C378.721 250.264 411.083 257.276 411.083 257.276C411.622 299.346 392.205 304.74 392.205 304.74C356.606 300.425 321.008 268.602 321.008 251.343ZM274.622 441.74H305.366L312.917 474.642L329.638 485.429L316.693 511.858H268.15L252.508 485.429L268.15 474.642L274.622 441.74ZM200.11 402.52C200.11 402.52 211.563 390.686 227 377.156V386.787C211.617 395.22 200.11 402.52 200.11 402.52ZM237 368.653V381.451C243.634 378.012 250.633 374.596 257.513 371.592V353.137C250.601 357.833 243.61 363.212 237 368.653ZM292.342 361.605C285.707 361.605 276.969 363.946 267.513 367.509V346.829C276.753 341.498 285.425 338.027 292.342 338.027C299.6 338.027 308.789 341.848 318.539 347.629V368.03C308.56 364.177 299.296 361.605 292.342 361.605ZM328.539 372.193V354.074C335.483 358.873 342.474 364.319 349.052 369.783V382.162C342.451 378.712 335.452 375.258 328.539 372.193ZM359.052 387.539V378.359C373.793 391.38 384.575 402.52 384.575 402.52C384.575 402.52 373.745 395.65 359.052 387.539ZM233.63 492.98C233.63 501.619 226.627 508.622 217.988 508.622C209.349 508.622 202.346 501.619 202.346 492.98C202.346 484.342 209.349 477.339 217.988 477.339C226.627 477.339 233.63 484.342 233.63 492.98ZM362.539 508.622C371.178 508.622 378.181 501.619 378.181 492.98C378.181 484.342 371.178 477.339 362.539 477.339C353.901 477.339 346.898 484.342 346.898 492.98C346.898 501.619 353.901 508.622 362.539 508.622ZM144.444 388.648L165.869 403.352L156.232 410.682L135.018 388.648H144.444ZM428 403.352L449.426 388.648H458.851L437.638 410.682L428 403.352Z" fill="black"/>
</svg>
